<?xml version="1.0" standalone="no"?>
<!DOCTYPE svg PUBLIC "-//W3C//DTD SVG 20010904//EN"
 "http://www.w3.org/TR/2001/REC-SVG-20010904/DTD/svg10.dtd">
<svg version="1.0" xmlns="http://www.w3.org/2000/svg"
 width="935.000000pt" height="935.000000pt" viewBox="0 0 935.000000 935.000000"
 preserveAspectRatio="xMidYMid meet">
<metadata>
Created by potrace 1.14, written by Peter Selinger 2001-2017
</metadata>
<g transform="translate(0.000000,935.000000) scale(0.100000,-0.100000)"
fill="#000000" stroke="none">
<path d="M7632 9339 c-13 -5 -29 -6 -34 -2 -7 3 -8 1 -4 -5 5 -8 -1 -11 -16
-10 -32 2 -99 -22 -93 -33 6 -9 -27 -14 -73 -11 -12 0 -20 -4 -16 -9 3 -6 -5
-7 -22 -3 -21 5 -25 4 -19 -6 6 -10 2 -11 -19 -6 -20 5 -26 4 -20 -5 5 -9 1
-10 -14 -7 -12 4 -22 2 -22 -3 0 -5 -12 -7 -27 -3 -23 4 -25 3 -13 -6 12 -9
10 -10 -12 -6 -20 5 -28 2 -28 -8 0 -16 -27 -29 -42 -19 -6 3 -8 2 -5 -4 7
-10 -56 -137 -64 -129 -5 5 -5 0 -17 -202 -6 -106 -13 -156 -22 -162 -7 -4
-10 -12 -7 -16 8 -14 -12 -56 -23 -49 -6 3 -7 0 -4 -9 4 -10 -6 -28 -25 -47
-17 -17 -31 -35 -31 -40 0 -5 -12 -9 -27 -8 -25 0 -26 1 -8 10 16 7 13 8 -12
4 -19 -2 -33 0 -33 6 0 6 -4 8 -9 5 -12 -8 -34 21 -26 34 3 5 0 13 -9 16 -9 3
-12 12 -9 21 4 10 2 14 -4 10 -6 -4 -16 0 -23 8 -7 8 -10 15 -6 15 4 0 0 14
-9 30 -9 17 -22 30 -31 30 -8 0 -12 4 -9 10 3 5 -4 23 -16 40 -16 22 -25 27
-31 18 -8 -13 -9 -11 -13 28 -3 28 -14 46 -25 39 -9 -5 -34 31 -35 50 -1 18
-26 56 -34 51 -4 -3 -14 6 -21 19 -10 19 -17 22 -30 15 -10 -5 -21 -6 -25 -2
-5 4 -5 1 -1 -5 4 -7 2 -13 -3 -13 -6 0 -11 -9 -11 -19 0 -11 -4 -23 -10 -26
-5 -3 -10 -14 -9 -23 0 -14 2 -13 9 3 6 14 9 16 10 5 2 -8 2 -19 1 -23 -1 -5
3 -6 8 -2 6 3 18 -13 29 -35 10 -22 21 -37 25 -34 4 4 7 3 7 -3 0 -6 9 -13 21
-16 11 -3 19 -11 18 -19 -1 -7 -1 -20 0 -28 1 -13 2 -13 11 0 5 8 10 11 11 5
4 -46 34 -100 49 -90 6 4 10 -7 10 -24 0 -16 5 -33 11 -37 8 -4 9 1 5 17 -7
23 -6 23 8 5 9 -10 13 -23 10 -28 -3 -4 3 -20 14 -36 10 -15 22 -35 25 -45 4
-10 11 -16 16 -12 16 9 20 -7 22 -91 2 -95 7 -110 52 -156 41 -42 91 -71 127
-73 14 -1 52 -2 85 -4 49 -2 55 -5 35 -12 -21 -7 -19 -8 12 -5 22 3 39 0 42
-7 3 -9 7 -9 13 0 6 8 13 9 23 2 13 -7 13 -10 1 -18 -15 -10 -5 -35 10 -26 5
4 9 1 9 -5 0 -6 -7 -13 -15 -16 -8 -4 -15 -14 -15 -23 0 -26 -49 -92 -63 -85
-7 4 -9 3 -4 -1 4 -5 -5 -21 -20 -37 -15 -15 -23 -28 -18 -28 5 0 0 -6 -11
-14 -10 -8 -19 -20 -19 -27 0 -7 -6 -14 -14 -17 -9 -3 -11 0 -5 9 7 12 5 12
-9 0 -9 -7 -14 -17 -11 -22 3 -5 -1 -9 -9 -9 -14 0 -45 -28 -46 -42 -1 -5 -3
-8 -6 -7 -3 0 -28 -20 -56 -45 -28 -25 -66 -51 -85 -58 -19 -6 -34 -16 -34
-21 0 -4 -4 -5 -10 -2 -5 3 -10 2 -10 -3 0 -6 -6 -9 -12 -8 -7 0 -14 -3 -16
-9 -3 -10 -50 -39 -65 -40 -4 0 -12 -6 -16 -14 -5 -7 -14 -10 -20 -7 -6 4 -24
-2 -40 -13 -16 -12 -35 -21 -43 -21 -8 0 -23 -8 -34 -17 -11 -10 -26 -19 -34
-21 -8 -2 -17 -7 -20 -10 -5 -7 -35 -22 -87 -44 -18 -7 -33 -18 -33 -24 0 -12
-42 -34 -65 -34 -8 0 -15 -3 -15 -7 0 -5 -17 -19 -38 -33 -20 -14 -41 -30 -45
-37 -4 -7 -15 -13 -23 -13 -8 0 -46 -32 -84 -70 -39 -39 -70 -68 -70 -64 0 3
-24 -19 -53 -48 -29 -29 -64 -61 -77 -70 -43 -29 -248 -127 -254 -121 -3 4 -6
1 -6 -5 0 -6 -16 -16 -35 -23 -19 -7 -35 -16 -35 -21 0 -4 -17 -10 -37 -14
-21 -4 -57 -20 -80 -36 -24 -16 -43 -25 -43 -21 0 4 -5 1 -10 -7 -8 -12 -12
-13 -19 -2 -7 12 -12 12 -30 1 -11 -8 -21 -18 -21 -22 0 -5 -11 -6 -24 -3 -28
7 -120 -25 -149 -52 -11 -9 -24 -17 -30 -17 -24 -2 -53 -20 -107 -64 -30 -25
-56 -49 -58 -53 -2 -5 -12 -8 -23 -8 -13 0 -19 -6 -17 -16 2 -10 -5 -18 -15
-20 -21 -3 -47 -23 -44 -32 1 -4 -2 -8 -8 -9 -5 -1 -12 -10 -16 -20 -3 -10
-10 -18 -15 -18 -17 -1 -64 -37 -59 -45 3 -5 1 -11 -5 -15 -5 -3 -10 0 -10 7
-1 10 -4 9 -13 -2 -7 -8 -25 -23 -40 -33 -15 -10 -25 -22 -22 -27 4 -6 -2 -10
-12 -10 -11 0 -25 -6 -32 -12 -10 -11 -15 -9 -27 6 -14 19 -14 19 -14 -1 0
-12 6 -24 13 -26 9 -4 9 -6 -1 -6 -7 -1 -10 -5 -7 -11 3 -5 1 -10 -6 -10 -11
0 -9 84 5 203 2 15 0 27 -4 27 -4 0 -10 27 -13 60 -4 34 -16 83 -28 110 -11
27 -18 53 -15 58 5 9 -10 65 -31 112 -3 8 -7 18 -7 22 -1 3 -11 18 -23 31 -27
32 -44 63 -37 70 5 5 -40 80 -64 105 -7 8 -9 18 -6 24 4 6 3 9 -2 5 -5 -3 -22
13 -39 34 -16 22 -40 42 -52 45 -13 4 -20 10 -17 16 3 5 -2 16 -12 24 -58 45
-107 75 -124 77 -11 1 -20 4 -20 7 0 8 -65 42 -76 39 -5 -2 -34 1 -64 6 -41 6
-50 10 -35 15 13 5 0 9 -40 10 -144 4 -219 -1 -202 -13 7 -5 1 -6 -15 -3 -16
4 -28 2 -28 -3 0 -9 -93 -27 -117 -22 -7 1 -13 -3 -13 -9 0 -6 -4 -8 -10 -5
-6 3 -10 1 -10 -4 0 -6 -4 -11 -9 -11 -5 0 -20 -4 -33 -9 -13 -5 -27 -9 -32
-9 -5 0 -12 -4 -15 -9 -3 -4 -31 -25 -61 -46 -30 -20 -70 -50 -89 -66 -19 -17
-38 -28 -42 -26 -10 7 -50 -32 -54 -52 -1 -10 -8 -17 -15 -15 -17 4 -39 -29
-32 -48 5 -13 3 -13 -11 -1 -9 7 -17 24 -17 37 0 28 -14 38 -29 20 -14 -17
-51 -207 -51 -264 0 -57 22 -105 66 -148 26 -26 34 -41 30 -57 -5 -23 7 -52
22 -52 4 0 23 -17 42 -38 27 -32 31 -40 19 -48 -11 -8 -10 -9 5 -7 27 4 53
-77 60 -189 11 -152 19 -173 67 -173 22 0 32 -6 39 -26 6 -14 23 -29 40 -35
19 -7 30 -18 30 -29 0 -10 8 -21 18 -24 10 -3 26 -29 37 -57 12 -31 33 -60 54
-76 30 -23 39 -25 92 -20 40 5 74 16 110 39 29 17 66 32 83 33 17 1 42 5 55 9
17 6 21 5 16 -4 -4 -7 -1 -10 11 -8 12 2 19 -3 19 -13 0 -9 7 -24 14 -33 12
-14 12 -21 1 -41 -13 -23 -91 -80 -105 -76 -4 2 -11 -1 -14 -6 -3 -5 -40 -25
-81 -45 -192 -93 -241 -104 -457 -100 -685 11 -902 4 -1168 -38 -65 -10 -174
-40 -340 -92 -75 -24 -135 -27 -365 -18 -100 4 -124 2 -122 -8 2 -9 -4 -11
-18 -7 -11 4 -20 2 -20 -4 0 -6 -7 -8 -16 -4 -9 3 -19 1 -23 -6 -9 -13 -99
-49 -156 -62 -50 -10 -125 -11 -125 -1 0 4 -52 7 -115 7 -63 0 -115 -3 -115
-7 0 -5 -11 -8 -25 -8 -17 0 -28 -7 -34 -22 -7 -19 -4 -24 18 -32 14 -5 28
-12 31 -16 3 -4 16 -6 30 -6 53 2 230 -17 230 -24 0 -4 23 -11 52 -14 39 -6
49 -10 38 -17 -11 -8 -7 -9 15 -6 16 3 42 -1 57 -9 15 -8 29 -14 30 -13 5 3
103 -13 112 -18 7 -5 74 -5 201 1 17 0 32 4 35 7 3 3 43 15 90 27 90 23 127
23 495 8 137 -6 266 0 588 30 32 3 57 2 57 -3 0 -5 27 -8 60 -7 38 2 80 -4
115 -15 30 -10 52 -14 48 -8 -4 7 16 8 58 4 190 -20 367 -28 559 -26 318 3
330 3 330 12 0 4 19 7 43 7 23 -1 62 2 87 5 25 4 59 8 75 10 17 1 43 8 60 14
16 7 38 10 48 7 11 -2 16 -2 12 2 -9 9 96 32 119 25 12 -3 16 -1 12 6 -5 7 5
11 28 11 42 0 89 -17 82 -29 -7 -11 48 -66 66 -66 7 0 13 -7 13 -16 0 -21 24
-49 38 -46 7 1 11 -4 10 -10 -2 -7 2 -12 9 -10 6 1 14 -9 18 -23 3 -15 13 -25
24 -25 10 0 23 -7 29 -16 7 -8 20 -18 31 -22 16 -6 16 -10 5 -24 -10 -12 -10
-14 -1 -9 6 4 17 4 23 0 8 -5 8 -9 -1 -14 -7 -4 5 -7 26 -6 26 0 38 -3 37 -12
-2 -8 8 -10 32 -7 19 2 35 0 35 -6 0 -5 12 -7 28 -3 21 4 24 3 12 -5 -8 -6
-10 -11 -5 -12 142 -12 212 -8 200 12 -4 5 3 9 14 9 28 0 27 -14 -1 -28 -13
-6 -17 -11 -10 -11 7 -1 27 6 45 16 29 14 30 17 12 23 -11 4 23 6 75 5 61 -1
109 -8 134 -19 21 -9 48 -16 60 -16 16 0 18 -2 7 -9 -24 -15 24 -23 66 -12 21
6 49 10 63 10 l25 -1 -25 -8 c-23 -7 -23 -8 10 -10 l35 -3 -35 -7 -35 -7 37
-2 c20 0 40 4 43 9 4 7 12 7 18 2 7 -4 19 -8 27 -7 8 1 29 3 45 4 26 2 27 3
10 11 -16 7 -14 9 15 9 26 1 31 -2 20 -9 -11 -7 -1 -10 35 -9 28 1 61 -1 75
-5 19 -6 21 -5 10 3 -13 9 -13 11 1 11 9 0 19 -3 22 -7 14 -14 62 -11 79 4 10
9 21 13 25 9 4 -4 1 -12 -7 -17 -12 -9 -11 -10 5 -4 10 3 38 9 62 12 23 3 41
9 38 13 -9 14 79 7 93 -7 8 -8 29 -14 46 -13 56 3 77 0 71 -10 -3 -5 -1 -10 5
-10 28 0 102 -64 121 -106 12 -24 25 -41 30 -38 6 3 7 -6 3 -22 -5 -20 -4 -25
6 -19 9 6 10 2 5 -16 -18 -55 -17 -55 -7 -41 7 10 11 2 16 -28 4 -27 10 -39
18 -34 8 5 9 -6 5 -40 -5 -34 -4 -45 4 -40 8 5 10 -3 7 -25 -3 -18 -1 -34 4
-37 4 -3 8 -40 8 -82 0 -83 22 -359 31 -382 0 -3 1 -13 0 -23 -1 -9 2 -17 8
-17 10 0 11 -9 12 -65 1 -16 4 -32 9 -35 10 -7 52 -199 45 -210 -3 -5 0 -12 6
-15 6 -5 8 -21 4 -41 -4 -23 -2 -34 6 -34 15 0 6 -205 -15 -350 -17 -115 -14
-250 5 -250 11 0 40 -100 33 -111 -3 -5 -1 -9 4 -9 31 0 20 -176 -15 -244 -8
-16 -17 -45 -19 -65 -3 -20 -7 -45 -11 -56 -4 -11 -7 -27 -8 -35 -14 -124 -15
-177 -6 -286 19 -233 22 -348 12 -439 -6 -49 -13 -124 -17 -165 -7 -82 -41
-160 -94 -219 -16 -17 -29 -34 -29 -37 1 -3 -59 -68 -133 -143 -74 -75 -153
-164 -176 -198 l-41 -60 -63 -7 c-34 -4 -68 -12 -75 -18 -7 -6 -13 -7 -13 -3
0 4 -6 3 -12 -2 -7 -6 -43 -20 -80 -32 -37 -12 -68 -27 -70 -33 -2 -6 11 -53
29 -104 18 -52 30 -94 26 -94 -3 0 1 -8 10 -18 9 -10 23 -47 30 -83 12 -62 14
-65 57 -86 49 -24 196 -72 299 -98 74 -19 186 -24 200 -10 9 10 56 121 111
260 17 44 35 82 39 85 4 3 17 26 29 51 12 25 34 57 49 72 57 54 148 73 188 39
37 -30 65 -225 65 -443 0 -108 0 -109 26 -115 52 -13 54 -2 42 264 l-10 242
28 38 c42 56 47 62 69 85 15 17 20 36 20 77 -1 73 -7 120 -16 114 -7 -4 -30
52 -28 70 0 5 -3 12 -8 15 -4 3 -23 37 -41 74 -30 62 -33 75 -33 160 1 120 21
215 109 527 57 199 102 430 102 519 0 37 3 71 6 74 19 19 18 315 -1 329 -14
10 -9 276 6 314 6 16 13 56 15 89 3 33 9 92 14 130 5 39 7 81 3 93 -6 26 16
252 26 252 3 0 7 86 8 190 1 129 5 195 13 205 6 8 9 18 6 23 -3 5 -1 33 4 63
15 83 18 135 26 407 4 140 9 249 13 244 3 -6 7 18 7 51 3 131 6 167 14 167 5
0 7 11 4 25 -2 15 -1 31 3 38 4 7 6 43 4 81 -2 44 1 66 7 62 6 -3 32 5 59 19
26 13 44 25 38 25 -5 0 4 9 20 20 17 11 36 18 43 15 7 -3 11 -1 8 3 -8 14 19
39 76 71 31 18 62 39 68 46 7 8 18 15 26 15 7 0 29 16 48 35 20 19 43 35 52
35 10 0 15 3 12 6 -3 3 13 23 36 44 22 21 61 57 86 80 25 23 53 48 63 55 10 7
20 21 21 31 2 11 13 20 25 22 12 2 19 7 16 12 -3 5 -1 11 5 15 5 3 10 1 10 -6
0 -20 29 24 30 44 0 10 8 17 19 17 22 0 64 47 55 61 -3 5 2 9 11 9 20 0 67 50
61 66 -2 6 6 16 18 22 12 5 33 26 46 46 14 20 30 36 35 36 15 1 56 70 42 70
-7 1 2 12 18 25 17 14 26 25 21 25 -5 0 -1 9 9 20 9 10 21 18 25 17 12 -3 64
56 65 73 0 10 10 15 26 14 17 0 25 4 22 12 -3 7 4 20 15 30 11 9 18 23 15 31
-3 8 0 13 8 11 7 -2 13 4 14 12 0 8 5 15 10 16 34 3 107 85 98 110 -2 6 3 17
12 24 8 7 15 9 15 4 0 -5 7 2 16 14 9 13 13 26 10 29 -3 4 3 12 13 20 11 7 20
21 21 31 5 46 3 169 -3 187 -3 11 -6 25 -6 30 -1 6 -6 3 -11 -5 -8 -13 -10
-13 -10 1 0 9 -7 22 -15 29 -8 7 -12 17 -8 24 3 6 3 8 -2 4 -11 -11 -36 12
-28 25 3 5 2 8 -3 5 -5 -3 -15 0 -22 8 -9 10 -10 14 -1 14 7 0 5 8 -6 20 -10
11 -21 17 -25 15 -8 -5 -42 28 -38 36 2 2 1 3 -1 2 -7 -4 -36 41 -33 50 1 5
-2 6 -7 3 -10 -7 -24 10 -28 34 -1 8 -8 17 -14 19 -20 6 -94 81 -94 94 -1 7
-7 11 -14 9 -8 -2 -11 3 -8 12 4 9 1 18 -5 22 -7 5 -8 2 -3 -6 5 -8 3 -11 -6
-8 -8 3 -14 10 -14 16 0 18 -35 53 -46 46 -6 -3 -9 2 -7 12 2 11 -3 19 -12 19
-8 0 -15 5 -15 10 0 6 -8 21 -18 35 -9 13 -17 18 -17 11 0 -11 -3 -11 -15 -1
-8 7 -12 16 -9 21 3 5 0 8 -6 7 -7 -2 -14 6 -16 16 -3 20 -21 36 -42 36 -6 0
-11 3 -10 8 2 4 -1 8 -6 9 -5 1 -14 12 -21 25 -6 13 -17 22 -23 20 -7 -1 -12
2 -12 7 0 11 -110 124 -110 113 -1 -4 -7 4 -15 18 -7 14 -17 24 -22 23 -4 0
-7 3 -6 8 2 5 -4 9 -12 9 -9 0 -12 6 -8 17 5 12 2 15 -9 10 -11 -4 -18 2 -22
18 -3 13 -15 26 -26 30 -10 3 -17 12 -14 20 5 13 -12 30 -31 30 -5 0 -10 10
-11 22 -2 32 -13 55 -23 49 -5 -3 -15 18 -21 47 -7 28 -17 60 -22 71 -7 12 -6
22 0 28 8 8 -1 23 -28 49 -22 22 -44 39 -49 39 -6 0 -7 7 -4 17 4 10 2 14 -4
10 -12 -8 -53 38 -53 58 0 7 -12 24 -26 38 -24 24 -26 34 -29 122 -2 75 -1 93
8 80 10 -13 12 -11 12 14 0 16 -3 27 -7 24 -5 -2 -8 8 -7 24 0 25 1 26 9 8 6
-13 7 -1 4 35 -4 43 -3 52 6 40 9 -12 10 -10 6 13 -8 34 2 77 18 74 6 -1 10 9
9 26 -2 23 1 27 17 22 10 -3 21 -1 25 4 3 6 0 8 -8 5 -8 -3 -18 -1 -22 5 -3 6
-1 11 4 11 6 0 11 5 11 11 0 18 47 79 55 71 5 -4 6 -2 2 3 -3 6 1 21 9 35 8
15 14 19 14 10 0 -9 6 -6 14 9 8 14 12 30 9 37 -2 7 0 15 6 19 6 3 11 0 11 -7
1 -7 7 5 15 27 18 48 18 48 5 40 -13 -8 0 58 13 66 6 4 1 17 -12 30 -13 14
-21 18 -21 9 0 -16 -15 -3 -15 13 -1 7 -7 11 -14 9 -8 -2 -10 4 -7 16 6 19
-24 54 -57 65 -10 4 -15 12 -12 17 4 6 3 10 -2 9 -20 -3 -27 2 -13 11 11 7 11
10 2 10 -7 0 -10 5 -7 10 7 12 7 12 -23 -1z m-210 -1614 c49 17 67 13 93 -21
16 -21 29 -53 31 -77 3 -23 16 -66 29 -95 14 -29 25 -58 25 -64 0 -12 68 -163
129 -286 43 -87 150 -195 256 -257 68 -39 144 -102 112 -91 -11 3 -16 2 -12
-5 4 -5 14 -8 23 -5 15 5 92 -50 92 -66 0 -3 -33 -21 -72 -41 -40 -20 -98 -59
-128 -87 -78 -73 -101 -90 -232 -169 -187 -113 -327 -217 -462 -344 -21 -21
-42 -37 -46 -37 -4 0 -10 -9 -13 -20 -4 -17 -9 -19 -31 -11 -14 6 -87 17 -164
26 -110 13 -152 14 -203 5 -35 -6 -91 -15 -124 -19 -64 -9 -183 -39 -200 -51
-5 -4 -28 -13 -50 -20 -56 -18 -219 -114 -255 -150 -3 -3 -21 -16 -40 -29 -19
-13 -45 -37 -58 -52 -21 -25 -25 -27 -50 -16 -15 6 -53 28 -84 49 -31 21 -59
38 -62 38 -3 0 -33 20 -68 45 -35 25 -94 66 -131 91 -80 54 -257 225 -282 273
l-17 33 69 65 c76 72 200 163 259 191 22 10 57 29 79 43 22 13 45 22 50 21 6
-2 7 -1 3 3 -3 4 35 41 85 83 50 43 118 101 151 129 151 131 206 172 275 209
40 21 94 58 120 81 25 24 75 56 111 73 36 17 77 38 93 46 15 8 27 12 27 8 0
-4 6 -1 13 8 6 8 28 24 46 34 46 25 49 27 230 186 86 75 179 163 208 195 59
69 105 96 140 82 12 -4 28 -6 35 -4z"/>
<path d="M7920 6936 c0 -2 7 -7 16 -10 8 -3 12 -2 9 4 -6 10 -25 14 -25 6z"/>
<path d="M6040 5780 c0 -5 5 -10 11 -10 5 0 7 5 4 10 -3 6 -8 10 -11 10 -2 0
-4 -4 -4 -10z"/>
<path d="M6100 5775 c-7 -9 -11 -17 -9 -20 3 -2 10 5 17 15 14 24 10 26 -8 5z"/>
<path d="M7632 8724 c-7 -8 -12 -20 -9 -27 2 -7 9 -2 16 11 15 28 11 36 -7 16z"/>
<path d="M7785 8079 c-4 -5 -4 -13 -1 -16 3 -4 6 0 6 8 0 11 2 11 10 -1 6 -9
10 -10 10 -3 0 17 -17 25 -25 12z"/>
<path d="M532 7860 c0 -14 2 -19 5 -12 2 6 2 18 0 25 -3 6 -5 1 -5 -13z"/>
<path d="M8495 7220 c3 -5 8 -10 11 -10 2 0 4 5 4 10 0 6 -5 10 -11 10 -5 0
-7 -4 -4 -10z"/>
<path d="M2603 5243 c9 -2 23 -2 30 0 6 3 -1 5 -18 5 -16 0 -22 -2 -12 -5z"/>
<path d="M1658 5213 c7 -3 16 -2 19 1 4 3 -2 6 -13 5 -11 0 -14 -3 -6 -6z"/>
<path d="M5425 4890 c-3 -5 1 -10 9 -10 8 0 18 5 21 10 3 6 -1 10 -9 10 -8 0
-18 -4 -21 -10z"/>
<path d="M7301 4654 c0 -11 3 -14 6 -6 3 7 2 16 -1 19 -3 4 -6 -2 -5 -13z"/>
</g>
</svg>
